#!OML:ASF H:\GeneralSubjects\Female5\Project 1\Capture day 1\Session 1\Female5.ASF
:FULLY-SPECIFIED
:DEGREES
83
root 42.9581 15.956 3.2089 168.764 -82.4381 -154.629
lowerback 4.33414 0.194363 -0.293981
upperback -8.92555 0.21969 2.67888
thorax -12.0614 0.169824 3.06672
lowerneck -17.5538 -3.25924 -3.31968
upperneck 27.4007 -4.00067 -0.570717
head 11.9729 -2.40804 -0.305107
rclavicle -5.479e-015 1.70955e-014
rhumerus -53.5387 18.2237 -85.6427
rradius 37.51
rwrist -16.4902
rhand -20.1389 -23.1455
rfingers 7.12502
rthumb 6.20575 -53.0346
lclavicle -5.479e-015 1.70955e-014
lhumerus -51.1839 7.59791 72.1898
lradius 37.1403
lwrist 1.13445
lhand -28.7993 30.4043
lfingers 7.12502
lthumb -2.15788 60.3731
rfemur 0.0966056 23.4223 33.8857
rtibia -5.19824
rfoot -33.6903 -20.8518
rtoes -3.60077
lfemur -1.56499 -27.1214 -26.6926
ltibia 1.6396
lfoot -35.9173 8.49833
ltoes -52.5204
84
root 42.8553 15.9406 3.17278 169.999 -82.5205 -155.764
lowerback 4.30086 0.143191 -0.290217
upperback -8.88805 0.146599 2.61995
thorax -11.9921 0.130876 3.00904
lowerneck -17.6918 -2.87778 -3.13952
upperneck 27.7349 -3.41685 -0.905042
head 12.113 -2.17968 -0.378618
rclavicle 1.09704e-014 3.29983e-014
rhumerus -53.4312 18.2149 -85.5971
rradius 36.7805
rwrist -15.9113
rhand -23.2882 -20.6254
rfingers 7.12502
rthumb 3.16474 -50.5816
lclavicle 1.09704e-014 3.29983e-014
lhumerus -51.4197 7.07504 72.685
lradius 37.4985
lwrist 1.15245
lhand -27.4509 30.1709
lfingers 7.12502
lthumb -0.855552 60.1489
rfemur 0.301599 22.869 33.8678
rtibia -5.00901
rfoot -33.9571 -19.7306
rtoes -2.35711
lfemur -2.32134 -26.121 -26.6949
ltibia 3.12377
lfoot -33.9857 11.5635
ltoes -55.3
85
root 42.7489 15.922 3.13419 171.304 -82.5265 -156.972
lowerback 4.30722 0.136985 -0.371732
upperback -8.85254 0.130121 2.59933
thorax -11.9544 0.12975 3.03365
lowerneck -17.856 -2.5514 -2.88514
upperneck 28.0741 -2.89474 -1.36387
head 12.2624 -1.98901 -0.522016
rclavicle 1.98785e-016 3.33958e-014
rhumerus -53.6046 18.5265 -85.9647
rradius 36.915
rwrist -14.2056
rhand -22.4119 -21.5137
rfingers 7.12502
rthumb 4.01099 -51.4557
lclavicle 1.98785e-016 3.33958e-014
lhumerus -51.2385 7.87587 72.2946
lradius 37.191
lwrist 0.368708
lhand -27.4916 31.265
lfingers 7.12502
lthumb -0.894842 61.2429
rfemur 0.508901 22.2542 33.8777
rtibia -4.81599
rfoot -33.5218 -18.4861
rtoes -0.332063
lfemur -3.14728 -24.7983 -26.7371
ltibia 5.09761
lfoot -32.6743 12.8912
ltoes -57.524
86
root 42.6416 15.8999 3.09319 171.966 -82.4854 -157.563
lowerback 4.43585 0.185948 -0.439122
upperback -8.83057 0.195697 2.62103
thorax -12.0134 0.170691 3.08684
lowerneck -18.0069 -2.14231 -2.50924
upperneck 28.4669 -2.22235 -2.05251
head 12.4314 -1.75335 -0.75143
rclavicle -4.09993e-015 -8.74653e-015
rhumerus -53.3949 18.1704 -85.4223
rradius 37.4988
rwrist -11.9195
rhand -14.5508 -22.3505
rfingers 7.12502
rthumb 11.5979 -52.0096
lclavicle -4.09993e-015 -8.74653e-015
lhumerus -51.2643 8.31214 72.0589
lradius 37.3076
lwrist 0.537949
lhand -28.2595 30.0071
lfingers 7.12502
lthumb -1.63653 59.9806
rfemur 0.759505 21.72 34.0292
rtibia -4.60939
rfoot -32.28 -16.9272
rtoes 3.33201
lfemur -4.97386 -21.6807 -26.3102
ltibia 8.73374
lfoot -31.9078 8.80475
ltoes -56.7816
87
root 42.5315 15.8745 3.0525 172.142 -82.499 -157.676
lowerback 4.59138 0.221471 -0.374057
upperback -8.78601 0.258331 2.645
thorax -12.0614 0.198301 3.06777
lowerneck -17.877 -1.76699 -2.30097
upperneck 28.5155 -1.60082 -2.5602
head 12.4174 -1.52766 -0.881144
rclavicle -6.59717e-015 1.51076e-014
rhumerus -53.7839 18.6963 -86.0711
rradius 37.6667
rwrist -14.2618
rhand -21.8992 -23.5598
rfingers 7.12502
rthumb 4.50611 -53.4919
lclavicle -6.59717e-015 1.51076e-014
lhumerus -51.4449 7.60345 73.0242
lradius 37.5403
lwrist -0.694549
lhand -29.487 29.1365
lfingers 7.12502
lthumb -2.82202 59.0976
rfemur 1.11854 21.3047 34.2579
rtibia -4.52107
rfoot -32.1216 -16.3039
rtoes 4.17548
lfemur -6.77484 -18.9361 -25.8991
ltibia 11.9575
lfoot -30.3159 6.85438
ltoes -56.1919
88
root 42.4209 15.8461 3.01345 170.931 -82.5488 -156.411
lowerback 4.82274 0.233529 -0.0616669
upperback -8.70724 0.32207 2.71303
thorax -12.1145 0.206384 2.95711
lowerneck -17.504 -1.59358 -2.24621
upperneck 28.1277 -1.25099 -2.97921
head 12.1851 -1.41386 -0.980724
rclavicle -2.12451e-015 -3.33958e-014
rhumerus -53.9746 19.0538 -86.3907
rradius 37.5324
rwrist -15.5158
rhand -23.8564 -19.8576
rfingers 7.12502
rthumb 2.61607 -49.8213
lclavicle -2.12451e-015 -3.33958e-014
lhumerus -51.494 7.37303 73.4967
lradius 37.9767
lwrist -0.427092
lhand -28.7888 32.4929
lfingers 7.12502
lthumb -2.14775 62.4618
rfemur 1.43892 20.4806 34.61
rtibia -4.3976
rfoot -32.0839 -15.1841
rtoes 7.11543
lfemur -9.04731 -15.782 -25.2097
ltibia 16.1612
lfoot -28.4792 3.45503
ltoes -52.2879
89
root 42.3117 15.8094 2.9753 168.274 -82.6281 -153.638
lowerback 5.12499 0.24966 0.439046
upperback -8.64663 0.41857 2.83041
thorax -12.233 0.215399 2.79076
lowerneck -17.9462 -0.864357 -2.00319
upperneck 29.1244 -0.0816372 -3.61468
head 12.6876 -0.990982 -1.11133
rclavicle -1.40764e-014 9.54166e-015
rhumerus -54.1761 19.4956 -86.7468
rradius 37.93
rwrist -16.6105
rhand -21.6205 -16.6437
rfingers 7.12502
rthumb 4.77518 -46.5699
lclavicle -1.40764e-014 9.54166e-015
lhumerus -51.5286 7.31132 73.8098
lradius 38.4888
lwrist -0.363577
lhand -29.6686 31.0901
lfingers 7.12502
lthumb -2.99742 61.0488
rfemur 1.60474 19.2908 35.0829
rtibia -4.13425
rfoot -31.7123 -14.4487
rtoes 6.61879
lfemur -12.1913 -13.0252 -24.4159
ltibia 21.3501
lfoot -25.5384 2.54217
ltoes -46.5833
90
root 42.1975 15.7628 2.93779 164.775 -82.7066 -149.978
lowerback 5.39035 0.267406 1.07803
upperback -8.57023 0.53571 2.9623
thorax -12.3098 0.221194 2.55811
lowerneck -18.1779 -0.404942 -1.91364
upperneck 29.6793 0.697023 -4.05788
head 12.9795 -0.722416 -1.18982
rclavicle 2.04997e-016 -5.1684e-015
rhumerus -54.3814 20.0707 -87.1375
rradius 38.6146
rwrist -16.7356
rhand -20.5115 -16.5417
rfingers 7.12502
rthumb 5.84599 -46.4411
lclavicle 2.04997e-016 -5.1684e-015
lhumerus -51.5304 7.26007 74.0671
lradius 39.0416
lwrist -0.360698
lhand -29.9562 30.0868
lfingers 7.12502
lthumb -3.27516 60.0414
rfemur 1.78359 18.0124 35.6417
rtibia -3.91964
rfoot -31.4344 -13.6478
rtoes 5.77995
lfemur -14.934 -10.3628 -23.584
ltibia 26.1468
lfoot -22.5505 2.4958
ltoes -42.66
91
root 42.0769 15.7107 2.90051 160.133 -82.7575 -145.23
lowerback 5.70742 0.2757 1.8676
upperback -8.44395 0.665779 3.1219
thorax -12.3599 0.221064 2.26787
lowerneck -18.2566 -0.0335021 -1.98184
upperneck 29.8892 1.34598 -4.32024
head 13.099 -0.492211 -1.18094
rclavicle -1.69899e-015 -2.38542e-015
rhumerus -54.3105 20.4149 -87.0901
rradius 39.3619
rwrist -15.4071
rhand -19.9089 -17.4251
rfingers 7.12502
rthumb 6.42773 -47.3076
lclavicle -1.69899e-015 -2.38542e-015
lhumerus -51.4932 7.09493 74.4162
lradius 39.6988
lwrist -0.318714
lhand -29.7778 28.8853
lfingers 7.12502
lthumb -3.10283 58.8425
rfemur 2.18824 17.037 36.3821
rtibia -3.8937
rfoot -31.3447 -13.0074
rtoes 6.1101
lfemur -18.0001 -8.32518 -22.9155
ltibia 31.9771
lfoot -20.2573 3.05181
ltoes -39.445
92
root 41.9504 15.6511 2.86038 154.708 -82.7263 -139.697
lowerback 6.02853 0.311791 2.7057
upperback -8.2865 0.845744 3.30839
thorax -12.3768 0.242092 1.97057
lowerneck -18.2981 0.218282 -2.05956
upperneck 30.0178 1.82397 -4.58241
head 13.1758 -0.335236 -1.19558
rclavicle -1.13113e-014 -1.35174e-014
rhumerus -54.2368 20.8963 -87.2202
rradius 40.1548
rwrist -15.2801
rhand -20.0611 -17.763
rfingers 7.12502
rthumb 6.28078 -47.6499
lclavicle -1.13113e-014 -1.35174e-014
lhumerus -51.407 6.74072 74.8852
lradius 40.5075
lwrist -0.150273
lhand -29.4054 27.2541
lfingers 7.12502
lthumb -2.74319 57.2162
rfemur 2.76466 16.5144 37.3129
rtibia -4.03094
rfoot -31.3423 -12.8878
rtoes 5.63423
lfemur -21.5208 -6.29115 -22.2053
ltibia 38.1167
lfoot -18.2409 3.65825
ltoes -38.0823
93
root 41.8163 15.5848 2.81586 148.988 -82.5119 -133.803
lowerback 6.27554 0.394926 3.56467
upperback -8.10996 1.09288 3.53683
thorax -12.3252 0.295667 1.69505
lowerneck -18.3552 0.377062 -2.19572
upperneck 30.149 2.15042 -4.72482
head 13.2527 -0.234553 -1.17791
rclavicle -8.38623e-015 -5.64548e-014
rhumerus -54.0693 21.4334 -87.2968
rradius 40.7907
rwrist -15.1134
rhand -19.9723 -17.6152
rfingers 7.12502
rthumb 6.36657 -47.4995
lclavicle -8.38623e-015 -5.64548e-014
lhumerus -51.3379 6.23424 75.4393
lradius 41.4184
lwrist 0.200845
lhand -29.2496 26.8521
lfingers 7.12502
lthumb -2.59275 56.8161
rfemur 3.34307 16.0747 38.384
rtibia -4.25123
rfoot -31.2042 -13.0097
rtoes 3.70731
lfemur -24.9026 -4.47961 -21.4265
ltibia 43.8796
lfoot -16.8823 3.78604
ltoes -36.4651
94
root 41.6746 15.5218 2.77271 142.483 -82.2434 -127.082
lowerback 6.58612 0.458638 4.52067
upperback -7.98548 1.33395 3.78869
thorax -12.3702 0.336575 1.39443
lowerneck -18.4526 0.516066 -2.25459
upperneck 30.3299 2.43745 -4.90069
head 13.3602 -0.14958 -1.19446
rclavicle 7.54139e-015 -2.22639e-014
rhumerus -53.9344 22.1114 -87.4474
rradius 41.2534
rwrist -14.9441
rhand -20.3461 -16.4208
rfingers 7.12502
rthumb 6.00565 -46.3157
lclavicle 7.54139e-015 -2.22639e-014
lhumerus -51.4362 5.63509 75.9949
lradius 42.3191
lwrist 0.671201
lhand -28.514 31.6535
lfingers 7.12502
lthumb -1.88237 61.6249
rfemur 3.91638 15.6312 39.5262
rtibia -4.5909
rfoot -31.0164 -13.3053
rtoes 1.55634
lfemur -28.5968 -3.1723 -20.5269
ltibia 49.2769
lfoot -16.0685 2.08397
ltoes -34.6675
95
root 41.5246 15.463 2.74166 136.279 -82.0497 -120.501
lowerback 6.78371 0.496675 5.53699
upperback -7.93922 1.53701 3.97069
thorax -12.43 0.347271 0.993188
lowerneck -18.4733 0.589085 -2.26309
upperneck 30.5239 2.60654 -5.07983
head 13.4556 -0.111219 -1.24089
rclavicle -1.53064e-014 3.97569e-015
rhumerus -53.6347 22.8426 -87.5853
rradius 41.871
rwrist -15.0692
rhand -20.368 -16.9104
rfingers 7.12502
rthumb 5.98455 -46.8059
lclavicle -1.53064e-014 3.97569e-015
lhumerus -51.6161 5.11115 76.4558
lradius 43.1258
lwrist 1.05196
lhand -29.556 28.0571
lfingers 7.12502
lthumb -2.88872 58.0173
rfemur 4.32736 15.0125 40.4218
rtibia -5.05153
rfoot -30.714 -13.7589
rtoes -1.89624
lfemur -32.526 -2.32152 -19.9072
ltibia 53.8734
lfoot -15.4197 0.440748
ltoes -33.5092
96
root 41.3688 15.4033 2.72553 132.333 -81.8763 -115.926
lowerback 6.75424 0.615053 6.46915
upperback -7.95774 1.81019 4.03807
thorax -12.4149 0.392218 0.504354
lowerneck -18.4098 0.594272 -2.34428
upperneck 30.6926 2.64054 -5.08915
head 13.5145 -0.113736 -1.22909
rclavicle -6.90777e-015 1.98785e-014
rhumerus -53.1767 23.5443 -87.6668
rradius 42.337
rwrist -14.9355
rhand -20.8931 -16.9822
rfingers 7.12502
rthumb 5.47757 -46.8914
lclavicle -6.90777e-015 1.98785e-014
lhumerus -51.8287 4.59314 76.8905
lradius 43.9102
lwrist 1.28187
lhand -29.5023 28.5466
lfingers 7.12502
lthumb -2.83678 58.5074
rfemur 4.36826 13.8664 40.8284
rtibia -5.50308
rfoot -29.9433 -13.877
rtoes -7.02912
lfemur -36.5483 -1.65466 -19.7459
ltibia 57.3267
lfoot -15.0113 -1.01489
ltoes -32.9729
